<svg width="42" height="42" viewBox="0 0 42 42" fill="none" xmlns="http://www.w3.org/2000/svg">
<g clip-path="url(#clip0_2003_46)">
<path d="M33.4418 3.1207H14.1744V11.1107H37.5569V7.23412C37.5569 4.96576 35.7108 3.1207 33.4418 3.1207Z" fill="#CED9F9"/>
<path d="M22.5352 12.3403H0V4.92636C0 2.20972 2.21068 0 4.92828 0H12.1336C12.8497 0 13.5396 0.150925 14.1664 0.434509C15.0418 0.828964 15.7939 1.47913 16.3213 2.3286L22.5352 12.3403Z" fill="#1640C1"/>
<path d="M42 14.0001V37.8814C42 40.1527 40.1511 42 37.8789 42H4.12111C1.84891 42 0 40.1527 0 37.8814V9.88058H37.8789C40.1511 9.88058 42 11.7285 42 14.0001Z" fill="#2354E6"/>
<path d="M42 14.0001V37.8814C42 40.1527 40.1511 42 37.8789 42H21V9.88058H37.8789C40.1511 9.88058 42 11.7285 42 14.0001Z" fill="#1849D6"/>
<path d="M32.0479 25.9398C32.0479 32.0322 27.0918 36.9887 21 36.9887C14.9082 36.9887 9.95203 32.0322 9.95203 25.9398C9.95203 19.8484 14.9082 14.8919 21 14.8919C27.0918 14.8919 32.0479 19.8484 32.0479 25.9398Z" fill="#E7ECFC"/>
<path d="M32.0479 25.9398C32.0479 32.0322 27.0918 36.9887 21 36.9887V14.8919C27.0918 14.8919 32.0479 19.8484 32.0479 25.9398Z" fill="#CED9F9"/>
<path d="M24.561 26.0754C24.3306 26.2705 24.0483 26.3657 23.7685 26.3657C23.4183 26.3657 23.0703 26.2173 22.8268 25.9283L22.2304 25.2214V29.8494C22.2304 30.5288 21.6793 31.0799 21 31.0799C20.3207 31.0799 19.7695 30.5288 19.7695 29.8494V25.2214L19.1732 25.9283C18.7342 26.4477 17.9584 26.514 17.439 26.0754C16.9199 25.6373 16.8532 24.8612 17.2913 24.3418L19.7269 21.4544C20.0444 21.0788 20.5078 20.8629 21 20.8629C21.4922 20.8629 21.9555 21.0788 22.2731 21.4544L24.7087 24.3418C25.1467 24.8612 25.0801 25.6373 24.561 26.0754Z" fill="#6C8DEF"/>
<path d="M24.561 26.0754C24.3306 26.2705 24.0483 26.3657 23.7686 26.3657C23.4183 26.3657 23.0703 26.2173 22.8268 25.9283L22.2305 25.2214V29.8494C22.2305 30.5288 21.6793 31.0799 21 31.0799V20.8629C21.4922 20.8629 21.9555 21.0788 22.2731 21.4544L24.7087 24.3418C25.1467 24.8612 25.0801 25.6373 24.561 26.0754Z" fill="#3B67E9"/>
</g>
<defs>
<clipPath id="clip0_2003_46">
<rect width="42" height="42" fill="white"/>
</clipPath>
</defs>
</svg>
